
<svg stroke-dasharray="none" shape-rendering="auto"
     xmlns="http://www.w3.org/2000/svg" font-family="Helvetica"
     text-rendering="auto" width="264" fill-opacity="1"
     contentScriptType="text/ecmascript"
     xmlns:diagram="http://www.eclipse.org/sirius/diagram/1.1.0"
     color-interpolation="auto" color-rendering="auto"
     preserveAspectRatio="xMidYMid meet" font-size="12"
     diagram:semanticRoot="platform:/resource/FireFightingUAV-pd/software/controller_comm.rct#/"
     viewBox="0 0 264 195" fill="black"
     xmlns:xlink="http://www.w3.org/1999/xlink" stroke="black"
     image-rendering="auto" stroke-miterlimit="10" zoomAndPan="magnify"
     version="1.0" stroke-linejoin="miter" stroke-linecap="square"
     contentStyleType="text/css" font-style="normal" stroke-width="1"
     height="195" stroke-dashoffset="0" font-weight="normal" stroke-opacity="1">
    <!--Generated by the Batik Graphics2D SVG Generator-->
    <defs id="genericDefs"/>
    <g>
        <defs id="defs1">
            <linearGradient x1="10" xmlns:xlink="http://www.w3.org/1999/xlink"
                            gradientUnits="userSpaceOnUse" y1="10" x2="108"
                            y2="10" xlink:type="simple" xlink:actuate="onLoad"
                            id="linearGradient1" xlink:show="other"
                            spreadMethod="pad">
                <stop stop-opacity="1" stop-color="white" offset="0%"/>
                <stop stop-opacity="1" stop-color="white" offset="100%"/>
            </linearGradient>
            <linearGradient x1="111" xmlns:xlink="http://www.w3.org/1999/xlink"
                            gradientUnits="userSpaceOnUse" y1="10" x2="246"
                            y2="10" xlink:type="simple" xlink:actuate="onLoad"
                            id="linearGradient2" xlink:show="other"
                            spreadMethod="pad">
                <stop stop-opacity="1" stop-color="white" offset="0%"/>
                <stop stop-opacity="1" stop-color="white" offset="100%"/>
            </linearGradient>
            <linearGradient x1="113" xmlns:xlink="http://www.w3.org/1999/xlink"
                            gradientUnits="userSpaceOnUse" y1="106" x2="252"
                            y2="106" xlink:type="simple" xlink:actuate="onLoad"
                            id="linearGradient3" xlink:show="other"
                            spreadMethod="pad">
                <stop stop-opacity="1" stop-color="white" offset="0%"/>
                <stop stop-opacity="1" stop-color="white" offset="100%"/>
            </linearGradient>
            <clipPath clipPathUnits="userSpaceOnUse" id="clipPath1">
                <path d="M9 9 L111 9 L111 62 L9 62 L9 9 Z"/>
            </clipPath>
            <clipPath clipPathUnits="userSpaceOnUse" id="clipPath2">
                <path d="M9 9 L109 9 L109 60 L9 60 L9 9 Z"/>
            </clipPath>
            <clipPath clipPathUnits="userSpaceOnUse" id="clipPath3">
                <path d="M28 14 L93 14 L93 32 L28 32 L28 14 Z"/>
            </clipPath>
            <clipPath clipPathUnits="userSpaceOnUse" id="clipPath4">
                <path d="M14 37 L99 37 L99 55 L14 55 L14 37 Z"/>
            </clipPath>
            <clipPath clipPathUnits="userSpaceOnUse" id="clipPath5">
                <path d="M10 35 L108 35 L108 59 L10 59 L10 35 Z"/>
            </clipPath>
            <clipPath clipPathUnits="userSpaceOnUse" id="clipPath6">
                <path d="M110 9 L249 9 L249 106 L110 106 L110 9 Z"/>
            </clipPath>
            <clipPath clipPathUnits="userSpaceOnUse" id="clipPath7">
                <path d="M110 9 L247 9 L247 104 L110 104 L110 9 Z"/>
            </clipPath>
            <clipPath clipPathUnits="userSpaceOnUse" id="clipPath8">
                <path d="M113 14 L246 14 L246 32 L113 32 L113 14 Z"/>
            </clipPath>
            <clipPath clipPathUnits="userSpaceOnUse" id="clipPath9">
                <path d="M115 37 L234 37 L234 55 L115 55 L115 37 Z"/>
            </clipPath>
            <clipPath clipPathUnits="userSpaceOnUse" id="clipPath10">
                <path d="M115 37 L237 37 L237 55 L115 55 L115 37 Z"/>
            </clipPath>
            <clipPath clipPathUnits="userSpaceOnUse" id="clipPath11">
                <path d="M115 53 L242 53 L242 71 L115 71 L115 53 Z"/>
            </clipPath>
            <clipPath clipPathUnits="userSpaceOnUse" id="clipPath12">
                <path d="M115 53 L245 53 L245 71 L115 71 L115 53 Z"/>
            </clipPath>
            <clipPath clipPathUnits="userSpaceOnUse" id="clipPath13">
                <path d="M115 69 L230 69 L230 87 L115 87 L115 69 Z"/>
            </clipPath>
            <clipPath clipPathUnits="userSpaceOnUse" id="clipPath14">
                <path d="M115 69 L233 69 L233 87 L115 87 L115 69 Z"/>
            </clipPath>
            <clipPath clipPathUnits="userSpaceOnUse" id="clipPath15">
                <path d="M115 85 L237 85 L237 103 L115 103 L115 85 Z"/>
            </clipPath>
            <clipPath clipPathUnits="userSpaceOnUse" id="clipPath16">
                <path d="M115 85 L240 85 L240 103 L115 103 L115 85 Z"/>
            </clipPath>
            <clipPath clipPathUnits="userSpaceOnUse" id="clipPath17">
                <path d="M111 35 L246 35 L246 103 L111 103 L111 35 Z"/>
            </clipPath>
            <clipPath clipPathUnits="userSpaceOnUse" id="clipPath18">
                <path d="M112 105 L255 105 L255 186 L112 186 L112 105 Z"/>
            </clipPath>
            <clipPath clipPathUnits="userSpaceOnUse" id="clipPath19">
                <path d="M112 105 L253 105 L253 184 L112 184 L112 105 Z"/>
            </clipPath>
            <clipPath clipPathUnits="userSpaceOnUse" id="clipPath20">
                <path d="M113 110 L255 110 L255 128 L113 128 L113 110 Z"/>
            </clipPath>
            <clipPath clipPathUnits="userSpaceOnUse" id="clipPath21">
                <path d="M117 133 L205 133 L205 151 L117 151 L117 133 Z"/>
            </clipPath>
            <clipPath clipPathUnits="userSpaceOnUse" id="clipPath22">
                <path d="M117 133 L208 133 L208 151 L117 151 L117 133 Z"/>
            </clipPath>
            <clipPath clipPathUnits="userSpaceOnUse" id="clipPath23">
                <path d="M117 149 L203 149 L203 167 L117 167 L117 149 Z"/>
            </clipPath>
            <clipPath clipPathUnits="userSpaceOnUse" id="clipPath24">
                <path d="M117 149 L206 149 L206 167 L117 167 L117 149 Z"/>
            </clipPath>
            <clipPath clipPathUnits="userSpaceOnUse" id="clipPath25">
                <path d="M117 165 L217 165 L217 183 L117 183 L117 165 Z"/>
            </clipPath>
            <clipPath clipPathUnits="userSpaceOnUse" id="clipPath26">
                <path d="M117 165 L220 165 L220 183 L117 183 L117 165 Z"/>
            </clipPath>
            <clipPath clipPathUnits="userSpaceOnUse" id="clipPath27">
                <path d="M113 131 L252 131 L252 183 L113 183 L113 131 Z"/>
            </clipPath>
        </defs>
        <g font-size="13" fill="rgb(131,122,133)" stroke-linejoin="round"
           stroke="rgb(131,122,133)" font-weight="bold" stroke-width="0"
           stroke-miterlimit="0">
            <rect x="11" y="11" clip-path="url(#clipPath1)" width="98" rx="0"
                  height="49" ry="0" opacity="0.2549" stroke="none"/>
            <rect x="12" y="12" clip-path="url(#clipPath1)" width="98" rx="0"
                  height="49" ry="0" opacity="0.2549" stroke="none"/>
            <rect x="10" y="10" clip-path="url(#clipPath2)"
                  fill="url(#linearGradient1)" width="98" rx="0" height="49"
                  ry="0" stroke="none"/>
        </g>
        <g font-size="13" stroke-width="1.1" font-weight="bold"
           stroke-linecap="butt">
            <rect x="10" y="10" clip-path="url(#clipPath2)" fill="none"
                  width="97" rx="0" height="48" ry="0"/>
            <text x="29" xml:space="preserve" y="28" clip-path="url(#clipPath3)"
                  stroke="none">imports</text>
            <text x="15" y="51" clip-path="url(#clipPath4)" stroke="none"
                  font-weight="normal" xml:space="preserve">datatypes::*</text>
            <line clip-path="url(#clipPath5)" fill="none" x1="11" x2="107"
                  y1="36" y2="36"/>
            <rect x="112" y="11" clip-path="url(#clipPath6)"
                  fill="rgb(131,122,133)" width="135" rx="0" height="93" ry="0"
                  opacity="0.2549" stroke="none"/>
            <rect x="113" y="12" clip-path="url(#clipPath6)"
                  fill="rgb(131,122,133)" width="135" rx="0" height="93" ry="0"
                  opacity="0.2549" stroke="none"/>
            <rect x="111" y="10" clip-path="url(#clipPath7)"
                  fill="url(#linearGradient2)" width="135" rx="0" height="93"
                  ry="0" stroke="none"/>
            <rect x="111" y="10" clip-path="url(#clipPath7)" fill="none"
                  width="134" rx="0" height="92" ry="0"/>
            <text x="114" y="28" clip-path="url(#clipPath8)" stroke="none"
                  font-weight="normal" xml:space="preserve">GimbalSprayEvents</text>
            <svg contentScriptType="text/ecmascript" zoomAndPan="magnify"
                 xmlns:rdf="http://www.w3.org/1999/02/22-rdf-syntax-ns#"
                 xmlns:xlink="http://www.w3.org/1999/xlink"
                 xmlns:svg="http://www.w3.org/2000/svg"
                 contentStyleType="text/css" id="svg2replaced0" version="1.1"
                 xml:space="preserve" width="16"
                 xmlns:dc="http://purl.org/dc/elements/1.1/"
                 xmlns:cc="http://creativecommons.org/ns#"
                 preserveAspectRatio="xMidYMid meet" viewBox="0 0 16 15.999999"
                 height="16" xmlns="http://www.w3.org/2000/svg" x="116" y="38">
                <metadata id="metadata8replaced0">
                    <rdf:RDF>
                        <cc:Work rdf:about="">
                            <dc:format>image/svg+xml</dc:format><dc:type rdf:resource="http://purl.org/dc/dcmitype/StillImage"/>
                            <dc:title/></cc:Work></rdf:RDF></metadata>
                <defs id="defs6replaced0"/>
                <g id="g10replaced0"
                   transform="matrix(1.25,0,0,-1.25,8.5106511e-4,17.251461)">
                    <g id="g12replaced0"
                       transform="matrix(0.04845402,0,0,0.04845402,3.1425684,0.51606285)">
                        <path id="path14replaced0"
                              d="m 15.3906,10.0117 c -0.6992,0 -1.4101,0.1485 -2.0312,0.5391 -1.6406,0.9805 -2.3789,3.0078 -1.7188,4.8086 L 53.3984,130.238 2.89063,144.648 c -1.28907,0.364 -2.300786,1.372 -2.730474,2.661 -0.390625,1.293 -0.082031,2.73 0.78125,3.75 L 103.398,272.781 c 1.211,1.438 3.282,1.797 4.922,0.938 1.68,-0.899 2.5,-2.821 1.95,-4.649 L 80.7383,166.609 131.52,152.148 c 1.332,-0.386 2.351,-1.398 2.742,-2.687 0.386,-1.332 0.117,-2.742 -0.782,-3.789 L 18.4414,11.4102 C 17.6602,10.4688 16.5195,10.0117 15.3906,10.0117 Z M 11.0508,150.629 59.7305,136.762 c 1.0898,-0.313 1.9492,-1.012 2.4609,-2.032 0.5078,-0.968 0.5781,-2.152 0.1875,-3.16 L 26.6797,33.3281 123.32,146.18 74.6914,160.039 c -1.0195,0.281 -1.8828,0.981 -2.3906,1.922 -0.5391,0.898 -0.6602,1.988 -0.3516,3.051 L 97.3789,253.211 11.0508,150.629 Z"
                              style="fill:#000000;fill-opacity:1;fill-rule:nonzero;stroke:none"/></g></g></svg>
            <text x="135" y="51" clip-path="url(#clipPath10)" stroke="none"
                  font-weight="normal" xml:space="preserve">gimbalYaw: nat</text>
            <svg contentScriptType="text/ecmascript" zoomAndPan="magnify"
                 xmlns:rdf="http://www.w3.org/1999/02/22-rdf-syntax-ns#"
                 xmlns:xlink="http://www.w3.org/1999/xlink"
                 xmlns:svg="http://www.w3.org/2000/svg"
                 contentStyleType="text/css" id="svg2replaced1" version="1.1"
                 xml:space="preserve" width="16"
                 xmlns:dc="http://purl.org/dc/elements/1.1/"
                 xmlns:cc="http://creativecommons.org/ns#"
                 preserveAspectRatio="xMidYMid meet" viewBox="0 0 16 15.999999"
                 height="16" xmlns="http://www.w3.org/2000/svg" x="116" y="54">
                <metadata id="metadata8replaced1">
                    <rdf:RDF>
                        <cc:Work rdf:about="">
                            <dc:format>image/svg+xml</dc:format><dc:type rdf:resource="http://purl.org/dc/dcmitype/StillImage"/>
                            <dc:title/></cc:Work></rdf:RDF></metadata>
                <defs id="defs6replaced1"/>
                <g id="g10replaced1"
                   transform="matrix(1.25,0,0,-1.25,8.5106511e-4,17.251461)">
                    <g id="g12replaced1"
                       transform="matrix(0.04845402,0,0,0.04845402,3.1425684,0.51606285)">
                        <path id="path14replaced1"
                              d="m 15.3906,10.0117 c -0.6992,0 -1.4101,0.1485 -2.0312,0.5391 -1.6406,0.9805 -2.3789,3.0078 -1.7188,4.8086 L 53.3984,130.238 2.89063,144.648 c -1.28907,0.364 -2.300786,1.372 -2.730474,2.661 -0.390625,1.293 -0.082031,2.73 0.78125,3.75 L 103.398,272.781 c 1.211,1.438 3.282,1.797 4.922,0.938 1.68,-0.899 2.5,-2.821 1.95,-4.649 L 80.7383,166.609 131.52,152.148 c 1.332,-0.386 2.351,-1.398 2.742,-2.687 0.386,-1.332 0.117,-2.742 -0.782,-3.789 L 18.4414,11.4102 C 17.6602,10.4688 16.5195,10.0117 15.3906,10.0117 Z M 11.0508,150.629 59.7305,136.762 c 1.0898,-0.313 1.9492,-1.012 2.4609,-2.032 0.5078,-0.968 0.5781,-2.152 0.1875,-3.16 L 26.6797,33.3281 123.32,146.18 74.6914,160.039 c -1.0195,0.281 -1.8828,0.981 -2.3906,1.922 -0.5391,0.898 -0.6602,1.988 -0.3516,3.051 L 97.3789,253.211 11.0508,150.629 Z"
                              style="fill:#000000;fill-opacity:1;fill-rule:nonzero;stroke:none"/></g></g></svg>
            <text x="135" y="67" clip-path="url(#clipPath12)" stroke="none"
                  font-weight="normal" xml:space="preserve">gimbalPitch: nat</text>
            <svg contentScriptType="text/ecmascript" zoomAndPan="magnify"
                 xmlns:rdf="http://www.w3.org/1999/02/22-rdf-syntax-ns#"
                 xmlns:xlink="http://www.w3.org/1999/xlink"
                 xmlns:svg="http://www.w3.org/2000/svg"
                 contentStyleType="text/css" id="svg2replaced2" version="1.1"
                 xml:space="preserve" width="16"
                 xmlns:dc="http://purl.org/dc/elements/1.1/"
                 xmlns:cc="http://creativecommons.org/ns#"
                 preserveAspectRatio="xMidYMid meet" viewBox="0 0 16 15.999999"
                 height="16" xmlns="http://www.w3.org/2000/svg" x="116" y="70">
                <metadata id="metadata8replaced2">
                    <rdf:RDF>
                        <cc:Work rdf:about="">
                            <dc:format>image/svg+xml</dc:format><dc:type rdf:resource="http://purl.org/dc/dcmitype/StillImage"/>
                            <dc:title/></cc:Work></rdf:RDF></metadata>
                <defs id="defs6replaced2"/>
                <g id="g10replaced2"
                   transform="matrix(1.25,0,0,-1.25,8.5106511e-4,17.251461)">
                    <g id="g12replaced2"
                       transform="matrix(0.04845402,0,0,0.04845402,3.1425684,0.51606285)">
                        <path id="path14replaced2"
                              d="m 15.3906,10.0117 c -0.6992,0 -1.4101,0.1485 -2.0312,0.5391 -1.6406,0.9805 -2.3789,3.0078 -1.7188,4.8086 L 53.3984,130.238 2.89063,144.648 c -1.28907,0.364 -2.300786,1.372 -2.730474,2.661 -0.390625,1.293 -0.082031,2.73 0.78125,3.75 L 103.398,272.781 c 1.211,1.438 3.282,1.797 4.922,0.938 1.68,-0.899 2.5,-2.821 1.95,-4.649 L 80.7383,166.609 131.52,152.148 c 1.332,-0.386 2.351,-1.398 2.742,-2.687 0.386,-1.332 0.117,-2.742 -0.782,-3.789 L 18.4414,11.4102 C 17.6602,10.4688 16.5195,10.0117 15.3906,10.0117 Z M 11.0508,150.629 59.7305,136.762 c 1.0898,-0.313 1.9492,-1.012 2.4609,-2.032 0.5078,-0.968 0.5781,-2.152 0.1875,-3.16 L 26.6797,33.3281 123.32,146.18 74.6914,160.039 c -1.0195,0.281 -1.8828,0.981 -2.3906,1.922 -0.5391,0.898 -0.6602,1.988 -0.3516,3.051 L 97.3789,253.211 11.0508,150.629 Z"
                              style="fill:#000000;fill-opacity:1;fill-rule:nonzero;stroke:none"/></g></g></svg>
            <text x="135" y="83" clip-path="url(#clipPath14)" stroke="none"
                  font-weight="normal" xml:space="preserve">gimbalYawAck</text>
            <svg contentScriptType="text/ecmascript" zoomAndPan="magnify"
                 xmlns:rdf="http://www.w3.org/1999/02/22-rdf-syntax-ns#"
                 xmlns:xlink="http://www.w3.org/1999/xlink"
                 xmlns:svg="http://www.w3.org/2000/svg"
                 contentStyleType="text/css" id="svg2replaced3" version="1.1"
                 xml:space="preserve" width="16"
                 xmlns:dc="http://purl.org/dc/elements/1.1/"
                 xmlns:cc="http://creativecommons.org/ns#"
                 preserveAspectRatio="xMidYMid meet" viewBox="0 0 16 15.999999"
                 height="16" xmlns="http://www.w3.org/2000/svg" x="116" y="86">
                <metadata id="metadata8replaced3">
                    <rdf:RDF>
                        <cc:Work rdf:about="">
                            <dc:format>image/svg+xml</dc:format><dc:type rdf:resource="http://purl.org/dc/dcmitype/StillImage"/>
                            <dc:title/></cc:Work></rdf:RDF></metadata>
                <defs id="defs6replaced3"/>
                <g id="g10replaced3"
                   transform="matrix(1.25,0,0,-1.25,8.5106511e-4,17.251461)">
                    <g id="g12replaced3"
                       transform="matrix(0.04845402,0,0,0.04845402,3.1425684,0.51606285)">
                        <path id="path14replaced3"
                              d="m 15.3906,10.0117 c -0.6992,0 -1.4101,0.1485 -2.0312,0.5391 -1.6406,0.9805 -2.3789,3.0078 -1.7188,4.8086 L 53.3984,130.238 2.89063,144.648 c -1.28907,0.364 -2.300786,1.372 -2.730474,2.661 -0.390625,1.293 -0.082031,2.73 0.78125,3.75 L 103.398,272.781 c 1.211,1.438 3.282,1.797 4.922,0.938 1.68,-0.899 2.5,-2.821 1.95,-4.649 L 80.7383,166.609 131.52,152.148 c 1.332,-0.386 2.351,-1.398 2.742,-2.687 0.386,-1.332 0.117,-2.742 -0.782,-3.789 L 18.4414,11.4102 C 17.6602,10.4688 16.5195,10.0117 15.3906,10.0117 Z M 11.0508,150.629 59.7305,136.762 c 1.0898,-0.313 1.9492,-1.012 2.4609,-2.032 0.5078,-0.968 0.5781,-2.152 0.1875,-3.16 L 26.6797,33.3281 123.32,146.18 74.6914,160.039 c -1.0195,0.281 -1.8828,0.981 -2.3906,1.922 -0.5391,0.898 -0.6602,1.988 -0.3516,3.051 L 97.3789,253.211 11.0508,150.629 Z"
                              style="fill:#000000;fill-opacity:1;fill-rule:nonzero;stroke:none"/></g></g></svg>
            <text x="135" y="99" clip-path="url(#clipPath16)" stroke="none"
                  font-weight="normal" xml:space="preserve">gimbalPitchAck</text>
            <line clip-path="url(#clipPath17)" fill="none" x1="112" x2="245"
                  y1="36" y2="36"/>
            <rect x="114" y="107" clip-path="url(#clipPath18)"
                  fill="rgb(131,122,133)" width="139" rx="0" height="77" ry="0"
                  opacity="0.2549" stroke="none"/>
            <rect x="115" y="108" clip-path="url(#clipPath18)"
                  fill="rgb(131,122,133)" width="139" rx="0" height="77" ry="0"
                  opacity="0.2549" stroke="none"/>
            <rect x="113" y="106" clip-path="url(#clipPath19)"
                  fill="url(#linearGradient3)" width="139" rx="0" height="77"
                  ry="0" stroke="none"/>
            <rect x="113" y="106" clip-path="url(#clipPath19)" fill="none"
                  width="138" rx="0" height="76" ry="0"/>
            <text x="114" y="124" clip-path="url(#clipPath20)" stroke="none"
                  font-weight="normal" xml:space="preserve">SprayPlanningEvents</text>
            <svg contentScriptType="text/ecmascript" zoomAndPan="magnify"
                 xmlns:rdf="http://www.w3.org/1999/02/22-rdf-syntax-ns#"
                 xmlns:xlink="http://www.w3.org/1999/xlink"
                 xmlns:svg="http://www.w3.org/2000/svg"
                 contentStyleType="text/css" id="svg2replaced4" version="1.1"
                 xml:space="preserve" width="16"
                 xmlns:dc="http://purl.org/dc/elements/1.1/"
                 xmlns:cc="http://creativecommons.org/ns#"
                 preserveAspectRatio="xMidYMid meet" viewBox="0 0 16 15.999999"
                 height="16" xmlns="http://www.w3.org/2000/svg" x="118" y="134">
                <metadata id="metadata8replaced4">
                    <rdf:RDF>
                        <cc:Work rdf:about="">
                            <dc:format>image/svg+xml</dc:format><dc:type rdf:resource="http://purl.org/dc/dcmitype/StillImage"/>
                            <dc:title/></cc:Work></rdf:RDF></metadata>
                <defs id="defs6replaced4"/>
                <g id="g10replaced4"
                   transform="matrix(1.25,0,0,-1.25,8.5106511e-4,17.251461)">
                    <g id="g12replaced4"
                       transform="matrix(0.04845402,0,0,0.04845402,3.1425684,0.51606285)">
                        <path id="path14replaced4"
                              d="m 15.3906,10.0117 c -0.6992,0 -1.4101,0.1485 -2.0312,0.5391 -1.6406,0.9805 -2.3789,3.0078 -1.7188,4.8086 L 53.3984,130.238 2.89063,144.648 c -1.28907,0.364 -2.300786,1.372 -2.730474,2.661 -0.390625,1.293 -0.082031,2.73 0.78125,3.75 L 103.398,272.781 c 1.211,1.438 3.282,1.797 4.922,0.938 1.68,-0.899 2.5,-2.821 1.95,-4.649 L 80.7383,166.609 131.52,152.148 c 1.332,-0.386 2.351,-1.398 2.742,-2.687 0.386,-1.332 0.117,-2.742 -0.782,-3.789 L 18.4414,11.4102 C 17.6602,10.4688 16.5195,10.0117 15.3906,10.0117 Z M 11.0508,150.629 59.7305,136.762 c 1.0898,-0.313 1.9492,-1.012 2.4609,-2.032 0.5078,-0.968 0.5781,-2.152 0.1875,-3.16 L 26.6797,33.3281 123.32,146.18 74.6914,160.039 c -1.0195,0.281 -1.8828,0.981 -2.3906,1.922 -0.5391,0.898 -0.6602,1.988 -0.3516,3.051 L 97.3789,253.211 11.0508,150.629 Z"
                              style="fill:#000000;fill-opacity:1;fill-rule:nonzero;stroke:none"/></g></g></svg>
            <text x="137" y="147" clip-path="url(#clipPath22)" stroke="none"
                  font-weight="normal" xml:space="preserve">startSpray</text>
            <svg contentScriptType="text/ecmascript" zoomAndPan="magnify"
                 xmlns:rdf="http://www.w3.org/1999/02/22-rdf-syntax-ns#"
                 xmlns:xlink="http://www.w3.org/1999/xlink"
                 xmlns:svg="http://www.w3.org/2000/svg"
                 contentStyleType="text/css" id="svg2replaced5" version="1.1"
                 xml:space="preserve" width="16"
                 xmlns:dc="http://purl.org/dc/elements/1.1/"
                 xmlns:cc="http://creativecommons.org/ns#"
                 preserveAspectRatio="xMidYMid meet" viewBox="0 0 16 15.999999"
                 height="16" xmlns="http://www.w3.org/2000/svg" x="118" y="150">
                <metadata id="metadata8replaced5">
                    <rdf:RDF>
                        <cc:Work rdf:about="">
                            <dc:format>image/svg+xml</dc:format><dc:type rdf:resource="http://purl.org/dc/dcmitype/StillImage"/>
                            <dc:title/></cc:Work></rdf:RDF></metadata>
                <defs id="defs6replaced5"/>
                <g id="g10replaced5"
                   transform="matrix(1.25,0,0,-1.25,8.5106511e-4,17.251461)">
                    <g id="g12replaced5"
                       transform="matrix(0.04845402,0,0,0.04845402,3.1425684,0.51606285)">
                        <path id="path14replaced5"
                              d="m 15.3906,10.0117 c -0.6992,0 -1.4101,0.1485 -2.0312,0.5391 -1.6406,0.9805 -2.3789,3.0078 -1.7188,4.8086 L 53.3984,130.238 2.89063,144.648 c -1.28907,0.364 -2.300786,1.372 -2.730474,2.661 -0.390625,1.293 -0.082031,2.73 0.78125,3.75 L 103.398,272.781 c 1.211,1.438 3.282,1.797 4.922,0.938 1.68,-0.899 2.5,-2.821 1.95,-4.649 L 80.7383,166.609 131.52,152.148 c 1.332,-0.386 2.351,-1.398 2.742,-2.687 0.386,-1.332 0.117,-2.742 -0.782,-3.789 L 18.4414,11.4102 C 17.6602,10.4688 16.5195,10.0117 15.3906,10.0117 Z M 11.0508,150.629 59.7305,136.762 c 1.0898,-0.313 1.9492,-1.012 2.4609,-2.032 0.5078,-0.968 0.5781,-2.152 0.1875,-3.16 L 26.6797,33.3281 123.32,146.18 74.6914,160.039 c -1.0195,0.281 -1.8828,0.981 -2.3906,1.922 -0.5391,0.898 -0.6602,1.988 -0.3516,3.051 L 97.3789,253.211 11.0508,150.629 Z"
                              style="fill:#000000;fill-opacity:1;fill-rule:nonzero;stroke:none"/></g></g></svg>
            <text x="137" y="163" clip-path="url(#clipPath24)" stroke="none"
                  font-weight="normal" xml:space="preserve">stopSpray</text>
            <svg contentScriptType="text/ecmascript" zoomAndPan="magnify"
                 xmlns:rdf="http://www.w3.org/1999/02/22-rdf-syntax-ns#"
                 xmlns:xlink="http://www.w3.org/1999/xlink"
                 xmlns:svg="http://www.w3.org/2000/svg"
                 contentStyleType="text/css" id="svg2replaced6" version="1.1"
                 xml:space="preserve" width="16"
                 xmlns:dc="http://purl.org/dc/elements/1.1/"
                 xmlns:cc="http://creativecommons.org/ns#"
                 preserveAspectRatio="xMidYMid meet" viewBox="0 0 16 15.999999"
                 height="16" xmlns="http://www.w3.org/2000/svg" x="118" y="166">
                <metadata id="metadata8replaced6">
                    <rdf:RDF>
                        <cc:Work rdf:about="">
                            <dc:format>image/svg+xml</dc:format><dc:type rdf:resource="http://purl.org/dc/dcmitype/StillImage"/>
                            <dc:title/></cc:Work></rdf:RDF></metadata>
                <defs id="defs6replaced6"/>
                <g id="g10replaced6"
                   transform="matrix(1.25,0,0,-1.25,8.5106511e-4,17.251461)">
                    <g id="g12replaced6"
                       transform="matrix(0.04845402,0,0,0.04845402,3.1425684,0.51606285)">
                        <path id="path14replaced6"
                              d="m 15.3906,10.0117 c -0.6992,0 -1.4101,0.1485 -2.0312,0.5391 -1.6406,0.9805 -2.3789,3.0078 -1.7188,4.8086 L 53.3984,130.238 2.89063,144.648 c -1.28907,0.364 -2.300786,1.372 -2.730474,2.661 -0.390625,1.293 -0.082031,2.73 0.78125,3.75 L 103.398,272.781 c 1.211,1.438 3.282,1.797 4.922,0.938 1.68,-0.899 2.5,-2.821 1.95,-4.649 L 80.7383,166.609 131.52,152.148 c 1.332,-0.386 2.351,-1.398 2.742,-2.687 0.386,-1.332 0.117,-2.742 -0.782,-3.789 L 18.4414,11.4102 C 17.6602,10.4688 16.5195,10.0117 15.3906,10.0117 Z M 11.0508,150.629 59.7305,136.762 c 1.0898,-0.313 1.9492,-1.012 2.4609,-2.032 0.5078,-0.968 0.5781,-2.152 0.1875,-3.16 L 26.6797,33.3281 123.32,146.18 74.6914,160.039 c -1.0195,0.281 -1.8828,0.981 -2.3906,1.922 -0.5391,0.898 -0.6602,1.988 -0.3516,3.051 L 97.3789,253.211 11.0508,150.629 Z"
                              style="fill:#000000;fill-opacity:1;fill-rule:nonzero;stroke:none"/></g></g></svg>
            <text x="137" y="179" clip-path="url(#clipPath26)" stroke="none"
                  font-weight="normal" xml:space="preserve">waterEmpty</text>
            <line clip-path="url(#clipPath27)" fill="none" x1="114" x2="251"
                  y1="132" y2="132"/>
        </g>
    </g>
</svg>