
<svg stroke-dasharray="none" shape-rendering="auto"
     xmlns="http://www.w3.org/2000/svg" font-family="Helvetica"
     text-rendering="auto" width="498" fill-opacity="1"
     contentScriptType="text/ecmascript"
     xmlns:diagram="http://www.eclipse.org/sirius/diagram/1.1.0"
     color-interpolation="auto" color-rendering="auto"
     preserveAspectRatio="xMidYMid meet" font-size="12"
     diagram:semanticRoot="platform:/resource/FireFightingUAV-pd/software/gimbal.rct#/"
     viewBox="0 0 498 99" fill="black"
     xmlns:xlink="http://www.w3.org/1999/xlink" stroke="black"
     image-rendering="auto" stroke-miterlimit="10" zoomAndPan="magnify"
     version="1.0" stroke-linejoin="miter" stroke-linecap="square"
     contentStyleType="text/css" font-style="normal" stroke-width="1"
     height="99" stroke-dashoffset="0" font-weight="normal" stroke-opacity="1">
    <!--Generated by the Batik Graphics2D SVG Generator-->
    <defs id="genericDefs"/>
    <g>
        <defs id="defs1">
            <linearGradient x1="10" xmlns:xlink="http://www.w3.org/1999/xlink"
                            gradientUnits="userSpaceOnUse" y1="12" x2="200"
                            y2="12" xlink:type="simple" xlink:actuate="onLoad"
                            id="linearGradient1" xlink:show="other"
                            spreadMethod="pad">
                <stop stop-opacity="1" stop-color="white" offset="0%"/>
                <stop stop-opacity="1" stop-color="white" offset="100%"/>
            </linearGradient>
            <linearGradient x1="422" xmlns:xlink="http://www.w3.org/1999/xlink"
                            gradientUnits="userSpaceOnUse" y1="12" x2="475"
                            y2="12" xlink:type="simple" xlink:actuate="onLoad"
                            id="linearGradient2" xlink:show="other"
                            spreadMethod="pad">
                <stop stop-opacity="1" stop-color="white" offset="0%"/>
                <stop stop-opacity="1" stop-color="white" offset="100%"/>
            </linearGradient>
            <linearGradient x1="206" xmlns:xlink="http://www.w3.org/1999/xlink"
                            gradientUnits="userSpaceOnUse" y1="10" x2="486"
                            y2="10" xlink:type="simple" xlink:actuate="onLoad"
                            id="linearGradient3" xlink:show="other"
                            spreadMethod="pad">
                <stop stop-opacity="1" stop-color="white" offset="0%"/>
                <stop stop-opacity="1" stop-color="white" offset="100%"/>
            </linearGradient>
            <linearGradient x1="207" xmlns:xlink="http://www.w3.org/1999/xlink"
                            gradientUnits="userSpaceOnUse" y1="37" x2="485"
                            y2="37" xlink:type="simple" xlink:actuate="onLoad"
                            id="linearGradient4" xlink:show="other"
                            spreadMethod="pad">
                <stop stop-opacity="1" stop-color="white" offset="0%"/>
                <stop stop-opacity="1" stop-color="white" offset="100%"/>
            </linearGradient>
            <linearGradient x1="208" xmlns:xlink="http://www.w3.org/1999/xlink"
                            gradientUnits="userSpaceOnUse" y1="48" x2="486"
                            y2="48" xlink:type="simple" xlink:actuate="onLoad"
                            id="linearGradient5" xlink:show="other"
                            spreadMethod="pad">
                <stop stop-opacity="1" stop-color="white" offset="0%"/>
                <stop stop-opacity="1" stop-color="white" offset="100%"/>
            </linearGradient>
            <linearGradient x1="209" xmlns:xlink="http://www.w3.org/1999/xlink"
                            gradientUnits="userSpaceOnUse" y1="75" x2="485"
                            y2="75" xlink:type="simple" xlink:actuate="onLoad"
                            id="linearGradient6" xlink:show="other"
                            spreadMethod="pad">
                <stop stop-opacity="1" stop-color="white" offset="0%"/>
                <stop stop-opacity="1" stop-color="white" offset="100%"/>
            </linearGradient>
            <clipPath clipPathUnits="userSpaceOnUse" id="clipPath1">
                <path d="M9 11 L203 11 L203 76 L9 76 L9 11 Z"/>
            </clipPath>
            <clipPath clipPathUnits="userSpaceOnUse" id="clipPath2">
                <path d="M9 11 L201 11 L201 74 L9 74 L9 11 Z"/>
            </clipPath>
            <clipPath clipPathUnits="userSpaceOnUse" id="clipPath3">
                <path d="M80 16 L132 16 L132 34 L80 34 L80 16 Z"/>
            </clipPath>
            <clipPath clipPathUnits="userSpaceOnUse" id="clipPath4">
                <path d="M14 39 L196 39 L196 57 L14 57 L14 39 Z"/>
            </clipPath>
            <clipPath clipPathUnits="userSpaceOnUse" id="clipPath5">
                <path d="M14 39 L199 39 L199 57 L14 57 L14 39 Z"/>
            </clipPath>
            <clipPath clipPathUnits="userSpaceOnUse" id="clipPath6">
                <path d="M14 55 L192 55 L192 73 L14 73 L14 55 Z"/>
            </clipPath>
            <clipPath clipPathUnits="userSpaceOnUse" id="clipPath7">
                <path d="M14 55 L194 55 L194 73 L14 73 L14 55 Z"/>
            </clipPath>
            <clipPath clipPathUnits="userSpaceOnUse" id="clipPath8">
                <path d="M10 37 L200 37 L200 73 L10 73 L10 37 Z"/>
            </clipPath>
            <clipPath clipPathUnits="userSpaceOnUse" id="clipPath9">
                <path d="M421 11 L478 11 L478 54 L421 54 L421 11 Z"/>
            </clipPath>
            <clipPath clipPathUnits="userSpaceOnUse" id="clipPath10">
                <path d="M421 11 L476 11 L476 52 L421 52 L421 11 Z"/>
            </clipPath>
            <clipPath clipPathUnits="userSpaceOnUse" id="clipPath11">
                <path d="M422 16 L478 16 L478 34 L422 34 L422 16 Z"/>
            </clipPath>
            <clipPath clipPathUnits="userSpaceOnUse" id="clipPath12">
                <path d="M422 37 L475 37 L475 51 L422 51 L422 37 Z"/>
            </clipPath>
            <clipPath clipPathUnits="userSpaceOnUse" id="clipPath13">
                <path d="M205 9 L489 9 L489 52 L205 52 L205 9 Z"/>
            </clipPath>
            <clipPath clipPathUnits="userSpaceOnUse" id="clipPath14">
                <path d="M205 9 L487 9 L487 50 L205 50 L205 9 Z"/>
            </clipPath>
            <clipPath clipPathUnits="userSpaceOnUse" id="clipPath15">
                <path d="M206 14 L486 14 L486 32 L206 32 L206 14 Z"/>
            </clipPath>
            <clipPath clipPathUnits="userSpaceOnUse" id="clipPath16">
                <path d="M206 14 L489 14 L489 32 L206 32 L206 14 Z"/>
            </clipPath>
            <clipPath clipPathUnits="userSpaceOnUse" id="clipPath17">
                <path d="M206 36 L486 36 L486 46 L206 46 L206 36 Z"/>
            </clipPath>
            <clipPath clipPathUnits="userSpaceOnUse" id="clipPath18">
                <path d="M206 35 L486 35 L486 49 L206 49 L206 35 Z"/>
            </clipPath>
            <clipPath clipPathUnits="userSpaceOnUse" id="clipPath19">
                <path d="M207 47 L489 47 L489 90 L207 90 L207 47 Z"/>
            </clipPath>
            <clipPath clipPathUnits="userSpaceOnUse" id="clipPath20">
                <path d="M207 47 L487 47 L487 88 L207 88 L207 47 Z"/>
            </clipPath>
            <clipPath clipPathUnits="userSpaceOnUse" id="clipPath21">
                <path d="M208 52 L486 52 L486 70 L208 70 L208 52 Z"/>
            </clipPath>
            <clipPath clipPathUnits="userSpaceOnUse" id="clipPath22">
                <path d="M208 52 L489 52 L489 70 L208 70 L208 52 Z"/>
            </clipPath>
            <clipPath clipPathUnits="userSpaceOnUse" id="clipPath23">
                <path d="M208 74 L486 74 L486 84 L208 84 L208 74 Z"/>
            </clipPath>
            <clipPath clipPathUnits="userSpaceOnUse" id="clipPath24">
                <path d="M208 73 L486 73 L486 87 L208 87 L208 73 Z"/>
            </clipPath>
        </defs>
        <g font-size="13" fill="rgb(131,122,133)" stroke-linejoin="round"
           stroke="rgb(131,122,133)" stroke-width="0" stroke-miterlimit="0">
            <rect x="11" y="13" clip-path="url(#clipPath1)" width="190" rx="0"
                  height="61" ry="0" opacity="0.2549" stroke="none"/>
            <rect x="12" y="14" clip-path="url(#clipPath1)" width="190" rx="0"
                  height="61" ry="0" opacity="0.2549" stroke="none"/>
            <rect x="10" y="12" clip-path="url(#clipPath2)"
                  fill="url(#linearGradient1)" width="190" rx="0" height="61"
                  ry="0" stroke="none"/>
        </g>
        <g font-size="13" stroke-width="1.1" stroke-linecap="butt">
            <rect x="10" y="12" clip-path="url(#clipPath2)" fill="none"
                  width="189" rx="0" height="60" ry="0"/>
            <text x="81" xml:space="preserve" y="30" clip-path="url(#clipPath3)"
                  stroke="none">Gimbal</text>
            <svg contentScriptType="text/ecmascript" zoomAndPan="magnify"
                 xmlns:rdf="http://www.w3.org/1999/02/22-rdf-syntax-ns#"
                 xmlns:xlink="http://www.w3.org/1999/xlink"
                 xmlns:svg="http://www.w3.org/2000/svg"
                 contentStyleType="text/css" id="svg2replaced0" version="1.1"
                 xml:space="preserve" width="16"
                 xmlns:dc="http://purl.org/dc/elements/1.1/"
                 xmlns:cc="http://creativecommons.org/ns#"
                 preserveAspectRatio="xMidYMid meet" viewBox="0 0 16 16.000025"
                 height="16" xmlns="http://www.w3.org/2000/svg" x="15" y="40">
                <metadata id="metadata8replaced0">
                    <rdf:RDF>
                        <cc:Work rdf:about="">
                            <dc:format>image/svg+xml</dc:format><dc:type rdf:resource="http://purl.org/dc/dcmitype/StillImage"/>
                            <dc:title/></cc:Work></rdf:RDF></metadata>
                <defs id="defs6replaced0">
                    <clipPath clipPathUnits="userSpaceOnUse"
                              id="clipPath18replaced0">
                        <path d="m 0,6 3870,0 0,4100 L 0,4106 0,6 Z"
                              id="path20replaced0"/></clipPath></defs>
                <g id="g10replaced0"
                   transform="matrix(1.25,0,0,-1.25,0,17.247584)">
                    <g id="g12replaced0"
                       transform="matrix(0.00312499,0,0,0.00312499,0.36626931,0.96685818)">
                        <g id="g14replaced0">
                            <g id="g16replaced0"
                               clip-path="url(#clipPath18replaced0)">
                                <path id="path22replaced0"
                                      d="M 1923.01,4106 C 804.102,4106 0,3294.4 0,2077.09 0,993.809 781.988,9.98047 1923.12,9.98047 3075.43,9.98047 3861.6,993.539 3861.6,2077.09 3861.6,3304.13 3031.84,4106 1923.01,4106 Z M 2636.25,2111.82 C 2635.98,1434.44 2599.84,469.91 1923.12,469.91 l 0,-0.16 c -667.1,0 -693.71,965.08 -693.71,1641.25 0,793.52 74.22,1554.26 693.71,1554.26 619.5,0 713.13,-770.31 713.13,-1553.44 z"
                                      style="fill:#000000;fill-opacity:1;fill-rule:nonzero;stroke:none"/></g></g></g></g></svg>
            <text x="34" font-size="12" y="53" clip-path="url(#clipPath5)"
                  stroke="none" xml:space="preserve">gimbalWritePan(angle: int)</text>
            <svg contentScriptType="text/ecmascript" zoomAndPan="magnify"
                 xmlns:rdf="http://www.w3.org/1999/02/22-rdf-syntax-ns#"
                 xmlns:xlink="http://www.w3.org/1999/xlink"
                 xmlns:svg="http://www.w3.org/2000/svg"
                 contentStyleType="text/css" id="svg2replaced1" version="1.1"
                 xml:space="preserve" width="16"
                 xmlns:dc="http://purl.org/dc/elements/1.1/"
                 xmlns:cc="http://creativecommons.org/ns#"
                 preserveAspectRatio="xMidYMid meet" viewBox="0 0 16 16.000025"
                 height="16" xmlns="http://www.w3.org/2000/svg" x="15" y="56">
                <metadata id="metadata8replaced1">
                    <rdf:RDF>
                        <cc:Work rdf:about="">
                            <dc:format>image/svg+xml</dc:format><dc:type rdf:resource="http://purl.org/dc/dcmitype/StillImage"/>
                            <dc:title/></cc:Work></rdf:RDF></metadata>
                <defs id="defs6replaced1">
                    <clipPath clipPathUnits="userSpaceOnUse"
                              id="clipPath18replaced1">
                        <path d="m 0,6 3870,0 0,4100 L 0,4106 0,6 Z"
                              id="path20replaced1"/></clipPath></defs>
                <g id="g10replaced1"
                   transform="matrix(1.25,0,0,-1.25,0,17.247584)">
                    <g id="g12replaced1"
                       transform="matrix(0.00312499,0,0,0.00312499,0.36626931,0.96685818)">
                        <g id="g14replaced1">
                            <g id="g16replaced1"
                               clip-path="url(#clipPath18replaced1)">
                                <path id="path22replaced1"
                                      d="M 1923.01,4106 C 804.102,4106 0,3294.4 0,2077.09 0,993.809 781.988,9.98047 1923.12,9.98047 3075.43,9.98047 3861.6,993.539 3861.6,2077.09 3861.6,3304.13 3031.84,4106 1923.01,4106 Z M 2636.25,2111.82 C 2635.98,1434.44 2599.84,469.91 1923.12,469.91 l 0,-0.16 c -667.1,0 -693.71,965.08 -693.71,1641.25 0,793.52 74.22,1554.26 693.71,1554.26 619.5,0 713.13,-770.31 713.13,-1553.44 z"
                                      style="fill:#000000;fill-opacity:1;fill-rule:nonzero;stroke:none"/></g></g></g></g></svg>
            <text x="34" font-size="12" y="69" clip-path="url(#clipPath7)"
                  stroke="none" xml:space="preserve">gimbalWriteTilt(angle: int)</text>
            <line clip-path="url(#clipPath8)" fill="none" x1="11" x2="199"
                  y1="38" y2="38"/>
            <rect x="423" y="13" clip-path="url(#clipPath9)"
                  fill="rgb(131,122,133)" width="53" rx="0" height="39" ry="0"
                  opacity="0.2549" stroke="none"/>
            <rect x="424" y="14" clip-path="url(#clipPath9)"
                  fill="rgb(131,122,133)" width="53" rx="0" height="39" ry="0"
                  opacity="0.2549" stroke="none"/>
            <rect x="422" y="12" clip-path="url(#clipPath10)"
                  fill="url(#linearGradient2)" width="53" rx="0" height="39"
                  ry="0" stroke="none"/>
            <rect x="422" y="12" clip-path="url(#clipPath10)" fill="none"
                  width="52" rx="0" height="38" ry="0"/>
            <text x="426" y="30" clip-path="url(#clipPath11)" stroke="none"
                  font-weight="bold" xml:space="preserve">imp...</text>
            <line clip-path="url(#clipPath12)" fill="none" x1="423" x2="474"
                  y1="38" y2="38"/>
            <rect x="207" y="11" clip-path="url(#clipPath13)"
                  fill="rgb(131,122,133)" width="280" rx="0" height="39" ry="0"
                  opacity="0.2549" stroke="none"/>
            <rect x="208" y="12" clip-path="url(#clipPath13)"
                  fill="rgb(131,122,133)" width="280" rx="0" height="39" ry="0"
                  opacity="0.2549" stroke="none"/>
            <rect x="206" y="10" clip-path="url(#clipPath14)"
                  fill="url(#linearGradient3)" width="280" rx="0" height="39"
                  ry="0" stroke="none"/>
            <rect x="206" y="10" clip-path="url(#clipPath14)" fill="none"
                  width="279" rx="0" height="38" ry="0"/>
            <svg contentScriptType="text/ecmascript" zoomAndPan="magnify"
                 xmlns:rdf="http://www.w3.org/1999/02/22-rdf-syntax-ns#"
                 xmlns:xlink="http://www.w3.org/1999/xlink"
                 xmlns:svg="http://www.w3.org/2000/svg"
                 contentStyleType="text/css" id="svg2replaced2" version="1.1"
                 xml:space="preserve" width="16"
                 xmlns:dc="http://purl.org/dc/elements/1.1/"
                 xmlns:cc="http://creativecommons.org/ns#"
                 preserveAspectRatio="xMidYMid meet" viewBox="0 0 16 16.000025"
                 height="16" xmlns="http://www.w3.org/2000/svg" x="207" y="15">
                <metadata id="metadata8replaced2">
                    <rdf:RDF>
                        <cc:Work rdf:about="">
                            <dc:format>image/svg+xml</dc:format><dc:type rdf:resource="http://purl.org/dc/dcmitype/StillImage"/>
                            <dc:title/></cc:Work></rdf:RDF></metadata>
                <defs id="defs6replaced2">
                    <clipPath clipPathUnits="userSpaceOnUse"
                              id="clipPath18replaced2">
                        <path d="m 0,6 3870,0 0,4100 L 0,4106 0,6 Z"
                              id="path20replaced2"/></clipPath></defs>
                <g id="g10replaced2"
                   transform="matrix(1.25,0,0,-1.25,0,17.247584)">
                    <g id="g12replaced2"
                       transform="matrix(0.00312499,0,0,0.00312499,0.36626931,0.96685818)">
                        <g id="g14replaced2">
                            <g id="g16replaced2"
                               clip-path="url(#clipPath18replaced2)">
                                <path id="path22replaced2"
                                      d="M 1923.01,4106 C 804.102,4106 0,3294.4 0,2077.09 0,993.809 781.988,9.98047 1923.12,9.98047 3075.43,9.98047 3861.6,993.539 3861.6,2077.09 3861.6,3304.13 3031.84,4106 1923.01,4106 Z M 2636.25,2111.82 C 2635.98,1434.44 2599.84,469.91 1923.12,469.91 l 0,-0.16 c -667.1,0 -693.71,965.08 -693.71,1641.25 0,793.52 74.22,1554.26 693.71,1554.26 619.5,0 713.13,-770.31 713.13,-1553.44 z"
                                      style="fill:#000000;fill-opacity:1;fill-rule:nonzero;stroke:none"/></g></g></g></g></svg>
            <text x="226" xml:space="preserve" y="28"
                  clip-path="url(#clipPath16)" stroke="none">gimbalWritePan(angle: int) [terminates]</text>

            <line clip-path="url(#clipPath18)" fill="none" x1="207" x2="485"
                  y1="36" y2="36"/>
            <rect x="209" y="49" clip-path="url(#clipPath19)"
                  fill="rgb(131,122,133)" width="278" rx="0" height="39" ry="0"
                  opacity="0.2549" stroke="none"/>
            <rect x="210" y="50" clip-path="url(#clipPath19)"
                  fill="rgb(131,122,133)" width="278" rx="0" height="39" ry="0"
                  opacity="0.2549" stroke="none"/>
            <rect x="208" y="48" clip-path="url(#clipPath20)"
                  fill="url(#linearGradient5)" width="278" rx="0" height="39"
                  ry="0" stroke="none"/>
            <rect x="208" y="48" clip-path="url(#clipPath20)" fill="none"
                  width="277" rx="0" height="38" ry="0"/>
            <svg contentScriptType="text/ecmascript" zoomAndPan="magnify"
                 xmlns:rdf="http://www.w3.org/1999/02/22-rdf-syntax-ns#"
                 xmlns:xlink="http://www.w3.org/1999/xlink"
                 xmlns:svg="http://www.w3.org/2000/svg"
                 contentStyleType="text/css" id="svg2replaced3" version="1.1"
                 xml:space="preserve" width="16"
                 xmlns:dc="http://purl.org/dc/elements/1.1/"
                 xmlns:cc="http://creativecommons.org/ns#"
                 preserveAspectRatio="xMidYMid meet" viewBox="0 0 16 16.000025"
                 height="16" xmlns="http://www.w3.org/2000/svg" x="209" y="53">
                <metadata id="metadata8replaced3">
                    <rdf:RDF>
                        <cc:Work rdf:about="">
                            <dc:format>image/svg+xml</dc:format><dc:type rdf:resource="http://purl.org/dc/dcmitype/StillImage"/>
                            <dc:title/></cc:Work></rdf:RDF></metadata>
                <defs id="defs6replaced3">
                    <clipPath clipPathUnits="userSpaceOnUse"
                              id="clipPath18replaced3">
                        <path d="m 0,6 3870,0 0,4100 L 0,4106 0,6 Z"
                              id="path20replaced3"/></clipPath></defs>
                <g id="g10replaced3"
                   transform="matrix(1.25,0,0,-1.25,0,17.247584)">
                    <g id="g12replaced3"
                       transform="matrix(0.00312499,0,0,0.00312499,0.36626931,0.96685818)">
                        <g id="g14replaced3">
                            <g id="g16replaced3"
                               clip-path="url(#clipPath18replaced3)">
                                <path id="path22replaced3"
                                      d="M 1923.01,4106 C 804.102,4106 0,3294.4 0,2077.09 0,993.809 781.988,9.98047 1923.12,9.98047 3075.43,9.98047 3861.6,993.539 3861.6,2077.09 3861.6,3304.13 3031.84,4106 1923.01,4106 Z M 2636.25,2111.82 C 2635.98,1434.44 2599.84,469.91 1923.12,469.91 l 0,-0.16 c -667.1,0 -693.71,965.08 -693.71,1641.25 0,793.52 74.22,1554.26 693.71,1554.26 619.5,0 713.13,-770.31 713.13,-1553.44 z"
                                      style="fill:#000000;fill-opacity:1;fill-rule:nonzero;stroke:none"/></g></g></g></g></svg>
            <text x="228" xml:space="preserve" y="66"
                  clip-path="url(#clipPath22)" stroke="none">gimbalWriteTilt(angle: int) [terminates]</text>

            <line clip-path="url(#clipPath24)" fill="none" x1="209" x2="485"
                  y1="74" y2="74"/>
        </g>
    </g>
</svg>