
<svg stroke-dasharray="none" shape-rendering="auto"
     xmlns="http://www.w3.org/2000/svg" font-family="Helvetica"
     text-rendering="auto" width="338" fill-opacity="1"
     contentScriptType="text/ecmascript"
     xmlns:diagram="http://www.eclipse.org/sirius/diagram/1.1.0"
     color-interpolation="auto" color-rendering="auto"
     preserveAspectRatio="xMidYMid meet" font-size="12"
     diagram:semanticRoot="platform:/resource/FireFightingUAV-pd/software/mlx90640.rct#/"
     viewBox="0 0 338 203" fill="black"
     xmlns:xlink="http://www.w3.org/1999/xlink" stroke="black"
     image-rendering="auto" stroke-miterlimit="10" zoomAndPan="magnify"
     version="1.0" stroke-linejoin="miter" stroke-linecap="square"
     contentStyleType="text/css" font-style="normal" stroke-width="1"
     height="203" stroke-dashoffset="0" font-weight="normal" stroke-opacity="1">
    <!--Generated by the Batik Graphics2D SVG Generator-->
    <defs id="genericDefs"/>
    <g>
        <defs id="defs1">
            <linearGradient x1="10" xmlns:xlink="http://www.w3.org/1999/xlink"
                            gradientUnits="userSpaceOnUse" y1="10" x2="326"
                            y2="10" xlink:type="simple" xlink:actuate="onLoad"
                            id="linearGradient1" xlink:show="other"
                            spreadMethod="pad">
                <stop stop-opacity="1" stop-color="white" offset="0%"/>
                <stop stop-opacity="1" stop-color="white" offset="100%"/>
            </linearGradient>
            <linearGradient x1="10" xmlns:xlink="http://www.w3.org/1999/xlink"
                            gradientUnits="userSpaceOnUse" y1="146" x2="262"
                            y2="146" xlink:type="simple" xlink:actuate="onLoad"
                            id="linearGradient2" xlink:show="other"
                            spreadMethod="pad">
                <stop stop-opacity="1" stop-color="white" offset="0%"/>
                <stop stop-opacity="1" stop-color="white" offset="100%"/>
            </linearGradient>
            <clipPath clipPathUnits="userSpaceOnUse" id="clipPath1">
                <path d="M9 9 L329 9 L329 144 L9 144 L9 9 Z"/>
            </clipPath>
            <clipPath clipPathUnits="userSpaceOnUse" id="clipPath2">
                <path d="M9 9 L327 9 L327 142 L9 142 L9 9 Z"/>
            </clipPath>
            <clipPath clipPathUnits="userSpaceOnUse" id="clipPath3">
                <path d="M133 14 L207 14 L207 32 L133 32 L133 14 Z"/>
            </clipPath>
            <clipPath clipPathUnits="userSpaceOnUse" id="clipPath4">
                <path d="M10 35 L326 35 L326 141 L10 141 L10 35 Z"/>
            </clipPath>
            <clipPath clipPathUnits="userSpaceOnUse" id="clipPath5">
                <path d="M9 145 L265 145 L265 194 L9 194 L9 145 Z"/>
            </clipPath>
            <clipPath clipPathUnits="userSpaceOnUse" id="clipPath6">
                <path d="M9 145 L263 145 L263 192 L9 192 L9 145 Z"/>
            </clipPath>
            <clipPath clipPathUnits="userSpaceOnUse" id="clipPath7">
                <path d="M79 150 L197 150 L197 168 L79 168 L79 150 Z"/>
            </clipPath>
            <clipPath clipPathUnits="userSpaceOnUse" id="clipPath8">
                <path d="M14 173 L194 173 L194 191 L14 191 L14 173 Z"/>
            </clipPath>
            <clipPath clipPathUnits="userSpaceOnUse" id="clipPath9">
                <path d="M14 173 L197 173 L197 191 L14 191 L14 173 Z"/>
            </clipPath>
            <clipPath clipPathUnits="userSpaceOnUse" id="clipPath10">
                <path d="M10 171 L262 171 L262 191 L10 191 L10 171 Z"/>
            </clipPath>
        </defs>
        <g font-size="13" fill="rgb(131,122,133)" stroke-linejoin="round"
           stroke="rgb(131,122,133)" stroke-width="0" stroke-miterlimit="0">
            <rect x="11" y="11" clip-path="url(#clipPath1)" width="316" rx="0"
                  height="131" ry="0" opacity="0.2549" stroke="none"/>
            <rect x="12" y="12" clip-path="url(#clipPath1)" width="316" rx="0"
                  height="131" ry="0" opacity="0.2549" stroke="none"/>
            <rect x="10" y="10" clip-path="url(#clipPath2)"
                  fill="url(#linearGradient1)" width="316" rx="0" height="131"
                  ry="0" stroke="none"/>
        </g>
        <g font-size="13" stroke-width="1.1" stroke-linecap="butt">
            <rect x="10" y="10" clip-path="url(#clipPath2)" fill="none"
                  width="315" rx="0" height="130" ry="0"/>
            <text x="134" xml:space="preserve" y="28"
                  clip-path="url(#clipPath3)" stroke="none">MLX90640</text>
            <line clip-path="url(#clipPath4)" fill="none" x1="11" x2="325"
                  y1="36" y2="36"/>
            <rect x="11" y="147" clip-path="url(#clipPath5)"
                  fill="rgb(131,122,133)" width="252" rx="0" height="45" ry="0"
                  opacity="0.2549" stroke="none"/>
            <rect x="12" y="148" clip-path="url(#clipPath5)"
                  fill="rgb(131,122,133)" width="252" rx="0" height="45" ry="0"
                  opacity="0.2549" stroke="none"/>
            <rect x="10" y="146" clip-path="url(#clipPath6)"
                  fill="url(#linearGradient2)" width="252" rx="0" height="45"
                  ry="0" stroke="none"/>
            <rect x="10" y="146" clip-path="url(#clipPath6)" fill="none"
                  width="251" rx="0" height="44" ry="0"/>
            <text x="80" xml:space="preserve" y="164"
                  clip-path="url(#clipPath7)" stroke="none">MLX90640Events</text>
            <svg contentScriptType="text/ecmascript" zoomAndPan="magnify"
                 xmlns:rdf="http://www.w3.org/1999/02/22-rdf-syntax-ns#"
                 xmlns:xlink="http://www.w3.org/1999/xlink"
                 xmlns:svg="http://www.w3.org/2000/svg"
                 contentStyleType="text/css" id="svg2replaced0" version="1.1"
                 xml:space="preserve" width="16"
                 xmlns:dc="http://purl.org/dc/elements/1.1/"
                 xmlns:cc="http://creativecommons.org/ns#"
                 preserveAspectRatio="xMidYMid meet" viewBox="0 0 16 15.999999"
                 height="16" xmlns="http://www.w3.org/2000/svg" x="15" y="174">
                <metadata id="metadata8replaced0">
                    <rdf:RDF>
                        <cc:Work rdf:about="">
                            <dc:format>image/svg+xml</dc:format><dc:type rdf:resource="http://purl.org/dc/dcmitype/StillImage"/>
                            <dc:title/></cc:Work></rdf:RDF></metadata>
                <defs id="defs6replaced0"/>
                <g id="g10replaced0"
                   transform="matrix(1.25,0,0,-1.25,8.5106511e-4,17.251461)">
                    <g id="g12replaced0"
                       transform="matrix(0.04845402,0,0,0.04845402,3.1425684,0.51606285)">
                        <path id="path14replaced0"
                              d="m 15.3906,10.0117 c -0.6992,0 -1.4101,0.1485 -2.0312,0.5391 -1.6406,0.9805 -2.3789,3.0078 -1.7188,4.8086 L 53.3984,130.238 2.89063,144.648 c -1.28907,0.364 -2.300786,1.372 -2.730474,2.661 -0.390625,1.293 -0.082031,2.73 0.78125,3.75 L 103.398,272.781 c 1.211,1.438 3.282,1.797 4.922,0.938 1.68,-0.899 2.5,-2.821 1.95,-4.649 L 80.7383,166.609 131.52,152.148 c 1.332,-0.386 2.351,-1.398 2.742,-2.687 0.386,-1.332 0.117,-2.742 -0.782,-3.789 L 18.4414,11.4102 C 17.6602,10.4688 16.5195,10.0117 15.3906,10.0117 Z M 11.0508,150.629 59.7305,136.762 c 1.0898,-0.313 1.9492,-1.012 2.4609,-2.032 0.5078,-0.968 0.5781,-2.152 0.1875,-3.16 L 26.6797,33.3281 123.32,146.18 74.6914,160.039 c -1.0195,0.281 -1.8828,0.981 -2.3906,1.922 -0.5391,0.898 -0.6602,1.988 -0.3516,3.051 L 97.3789,253.211 11.0508,150.629 Z"
                              style="fill:#000000;fill-opacity:1;fill-rule:nonzero;stroke:none"/></g></g></svg>
            <text x="34" xml:space="preserve" y="187"
                  clip-path="url(#clipPath9)" stroke="none">mlxHeatmap: RgbFrame</text>
            <line clip-path="url(#clipPath10)" fill="none" x1="11" x2="261"
                  y1="172" y2="172"/>
        </g>
    </g>
</svg>