
<svg stroke-dasharray="none" shape-rendering="auto"
     xmlns="http://www.w3.org/2000/svg" font-family="Helvetica"
     text-rendering="auto" width="313" fill-opacity="1"
     contentScriptType="text/ecmascript"
     xmlns:diagram="http://www.eclipse.org/sirius/diagram/1.1.0"
     color-interpolation="auto" color-rendering="auto"
     preserveAspectRatio="xMidYMid meet" font-size="12"
     diagram:semanticRoot="platform:/resource/FireFightingUAV-pd/software/rsd435i.rct#/"
     viewBox="0 0 313 188" fill="black"
     xmlns:xlink="http://www.w3.org/1999/xlink" stroke="black"
     image-rendering="auto" stroke-miterlimit="10" zoomAndPan="magnify"
     version="1.0" stroke-linejoin="miter" stroke-linecap="square"
     contentStyleType="text/css" font-style="normal" stroke-width="1"
     height="188" stroke-dashoffset="0" font-weight="normal" stroke-opacity="1">
    <!--Generated by the Batik Graphics2D SVG Generator-->
    <defs id="genericDefs"/>
    <g>
        <defs id="defs1">
            <linearGradient x1="10" xmlns:xlink="http://www.w3.org/1999/xlink"
                            gradientUnits="userSpaceOnUse" y1="10" x2="208"
                            y2="10" xlink:type="simple" xlink:actuate="onLoad"
                            id="linearGradient1" xlink:show="other"
                            spreadMethod="pad">
                <stop stop-opacity="1" stop-color="white" offset="0%"/>
                <stop stop-opacity="1" stop-color="white" offset="100%"/>
            </linearGradient>
            <linearGradient x1="10" xmlns:xlink="http://www.w3.org/1999/xlink"
                            gradientUnits="userSpaceOnUse" y1="124" x2="301"
                            y2="124" xlink:type="simple" xlink:actuate="onLoad"
                            id="linearGradient2" xlink:show="other"
                            spreadMethod="pad">
                <stop stop-opacity="1" stop-color="white" offset="0%"/>
                <stop stop-opacity="1" stop-color="white" offset="100%"/>
            </linearGradient>
            <linearGradient x1="10" xmlns:xlink="http://www.w3.org/1999/xlink"
                            gradientUnits="userSpaceOnUse" y1="58" x2="259"
                            y2="58" xlink:type="simple" xlink:actuate="onLoad"
                            id="linearGradient3" xlink:show="other"
                            spreadMethod="pad">
                <stop stop-opacity="1" stop-color="white" offset="0%"/>
                <stop stop-opacity="1" stop-color="white" offset="100%"/>
            </linearGradient>
            <clipPath clipPathUnits="userSpaceOnUse" id="clipPath1">
                <path d="M9 9 L211 9 L211 52 L9 52 L9 9 Z"/>
            </clipPath>
            <clipPath clipPathUnits="userSpaceOnUse" id="clipPath2">
                <path d="M9 9 L209 9 L209 50 L9 50 L9 9 Z"/>
            </clipPath>
            <clipPath clipPathUnits="userSpaceOnUse" id="clipPath3">
                <path d="M78 14 L143 14 L143 32 L78 32 L78 14 Z"/>
            </clipPath>
            <clipPath clipPathUnits="userSpaceOnUse" id="clipPath4">
                <path d="M10 35 L208 35 L208 49 L10 49 L10 35 Z"/>
            </clipPath>
            <clipPath clipPathUnits="userSpaceOnUse" id="clipPath5">
                <path d="M9 123 L304 123 L304 179 L9 179 L9 123 Z"/>
            </clipPath>
            <clipPath clipPathUnits="userSpaceOnUse" id="clipPath6">
                <path d="M9 123 L302 123 L302 177 L9 177 L9 123 Z"/>
            </clipPath>
            <clipPath clipPathUnits="userSpaceOnUse" id="clipPath7">
                <path d="M101 128 L212 128 L212 146 L101 146 L101 128 Z"/>
            </clipPath>
            <clipPath clipPathUnits="userSpaceOnUse" id="clipPath8">
                <path d="M10 149 L301 149 L301 176 L10 176 L10 149 Z"/>
            </clipPath>
            <clipPath clipPathUnits="userSpaceOnUse" id="clipPath9">
                <path d="M9 57 L262 57 L262 122 L9 122 L9 57 Z"/>
            </clipPath>
            <clipPath clipPathUnits="userSpaceOnUse" id="clipPath10">
                <path d="M9 57 L260 57 L260 120 L9 120 L9 57 Z"/>
            </clipPath>
            <clipPath clipPathUnits="userSpaceOnUse" id="clipPath11">
                <path d="M58 62 L213 62 L213 80 L58 80 L58 62 Z"/>
            </clipPath>
            <clipPath clipPathUnits="userSpaceOnUse" id="clipPath12">
                <path d="M14 85 L201 85 L201 103 L14 103 L14 85 Z"/>
            </clipPath>
            <clipPath clipPathUnits="userSpaceOnUse" id="clipPath13">
                <path d="M14 85 L204 85 L204 103 L14 103 L14 85 Z"/>
            </clipPath>
            <clipPath clipPathUnits="userSpaceOnUse" id="clipPath14">
                <path d="M14 101 L255 101 L255 119 L14 119 L14 101 Z"/>
            </clipPath>
            <clipPath clipPathUnits="userSpaceOnUse" id="clipPath15">
                <path d="M14 101 L258 101 L258 119 L14 119 L14 101 Z"/>
            </clipPath>
            <clipPath clipPathUnits="userSpaceOnUse" id="clipPath16">
                <path d="M10 83 L259 83 L259 119 L10 119 L10 83 Z"/>
            </clipPath>
        </defs>
        <g font-size="13" fill="rgb(131,122,133)" stroke-linejoin="round"
           stroke="rgb(131,122,133)" font-weight="bold" stroke-width="0"
           stroke-miterlimit="0">
            <rect x="11" y="11" clip-path="url(#clipPath1)" width="198" rx="0"
                  height="39" ry="0" opacity="0.2549" stroke="none"/>
            <rect x="12" y="12" clip-path="url(#clipPath1)" width="198" rx="0"
                  height="39" ry="0" opacity="0.2549" stroke="none"/>
            <rect x="10" y="10" clip-path="url(#clipPath2)"
                  fill="url(#linearGradient1)" width="198" rx="0" height="39"
                  ry="0" stroke="none"/>
        </g>
        <g font-size="13" stroke-width="1.1" font-weight="bold"
           stroke-linecap="butt">
            <rect x="10" y="10" clip-path="url(#clipPath2)" fill="none"
                  width="197" rx="0" height="38" ry="0"/>
            <text x="79" xml:space="preserve" y="28" clip-path="url(#clipPath3)"
                  stroke="none">imports</text>
            <line clip-path="url(#clipPath4)" fill="none" x1="11" x2="207"
                  y1="36" y2="36"/>
            <rect x="11" y="125" clip-path="url(#clipPath5)"
                  fill="rgb(131,122,133)" width="291" rx="0" height="52" ry="0"
                  opacity="0.2549" stroke="none"/>
            <rect x="12" y="126" clip-path="url(#clipPath5)"
                  fill="rgb(131,122,133)" width="291" rx="0" height="52" ry="0"
                  opacity="0.2549" stroke="none"/>
            <rect x="10" y="124" clip-path="url(#clipPath6)"
                  fill="url(#linearGradient2)" width="291" rx="0" height="52"
                  ry="0" stroke="none"/>
            <rect x="10" y="124" clip-path="url(#clipPath6)" fill="none"
                  width="290" rx="0" height="51" ry="0"/>
            <text x="102" y="142" clip-path="url(#clipPath7)" stroke="none"
                  font-weight="normal" xml:space="preserve">RealSenseD435i</text>
            <line clip-path="url(#clipPath8)" fill="none" x1="11" x2="300"
                  y1="150" y2="150"/>
            <rect x="11" y="59" clip-path="url(#clipPath9)"
                  fill="rgb(131,122,133)" width="249" rx="0" height="61" ry="0"
                  opacity="0.2549" stroke="none"/>
            <rect x="12" y="60" clip-path="url(#clipPath9)"
                  fill="rgb(131,122,133)" width="249" rx="0" height="61" ry="0"
                  opacity="0.2549" stroke="none"/>
            <rect x="10" y="58" clip-path="url(#clipPath10)"
                  fill="url(#linearGradient3)" width="249" rx="0" height="61"
                  ry="0" stroke="none"/>
            <rect x="10" y="58" clip-path="url(#clipPath10)" fill="none"
                  width="248" rx="0" height="60" ry="0"/>
            <text x="59" y="76" clip-path="url(#clipPath11)" stroke="none"
                  font-weight="normal" xml:space="preserve">RealSenseD435iEvents</text>
            <svg contentScriptType="text/ecmascript" zoomAndPan="magnify"
                 xmlns:rdf="http://www.w3.org/1999/02/22-rdf-syntax-ns#"
                 xmlns:xlink="http://www.w3.org/1999/xlink"
                 xmlns:svg="http://www.w3.org/2000/svg"
                 contentStyleType="text/css" id="svg2replaced0" version="1.1"
                 xml:space="preserve" width="16"
                 xmlns:dc="http://purl.org/dc/elements/1.1/"
                 xmlns:cc="http://creativecommons.org/ns#"
                 preserveAspectRatio="xMidYMid meet" viewBox="0 0 16 15.999999"
                 height="16" xmlns="http://www.w3.org/2000/svg" x="15" y="86">
                <metadata id="metadata8replaced0">
                    <rdf:RDF>
                        <cc:Work rdf:about="">
                            <dc:format>image/svg+xml</dc:format><dc:type rdf:resource="http://purl.org/dc/dcmitype/StillImage"/>
                            <dc:title/></cc:Work></rdf:RDF></metadata>
                <defs id="defs6replaced0"/>
                <g id="g10replaced0"
                   transform="matrix(1.25,0,0,-1.25,8.5106511e-4,17.251461)">
                    <g id="g12replaced0"
                       transform="matrix(0.04845402,0,0,0.04845402,3.1425684,0.51606285)">
                        <path id="path14replaced0"
                              d="m 15.3906,10.0117 c -0.6992,0 -1.4101,0.1485 -2.0312,0.5391 -1.6406,0.9805 -2.3789,3.0078 -1.7188,4.8086 L 53.3984,130.238 2.89063,144.648 c -1.28907,0.364 -2.300786,1.372 -2.730474,2.661 -0.390625,1.293 -0.082031,2.73 0.78125,3.75 L 103.398,272.781 c 1.211,1.438 3.282,1.797 4.922,0.938 1.68,-0.899 2.5,-2.821 1.95,-4.649 L 80.7383,166.609 131.52,152.148 c 1.332,-0.386 2.351,-1.398 2.742,-2.687 0.386,-1.332 0.117,-2.742 -0.782,-3.789 L 18.4414,11.4102 C 17.6602,10.4688 16.5195,10.0117 15.3906,10.0117 Z M 11.0508,150.629 59.7305,136.762 c 1.0898,-0.313 1.9492,-1.012 2.4609,-2.032 0.5078,-0.968 0.5781,-2.152 0.1875,-3.16 L 26.6797,33.3281 123.32,146.18 74.6914,160.039 c -1.0195,0.281 -1.8828,0.981 -2.3906,1.922 -0.5391,0.898 -0.6602,1.988 -0.3516,3.051 L 97.3789,253.211 11.0508,150.629 Z"
                              style="fill:#000000;fill-opacity:1;fill-rule:nonzero;stroke:none"/></g></g></svg>
            <text x="34" y="99" clip-path="url(#clipPath13)" stroke="none"
                  font-weight="normal" xml:space="preserve">rsDepthFrame: RgbFrame</text>
            <svg contentScriptType="text/ecmascript" zoomAndPan="magnify"
                 xmlns:rdf="http://www.w3.org/1999/02/22-rdf-syntax-ns#"
                 xmlns:xlink="http://www.w3.org/1999/xlink"
                 xmlns:svg="http://www.w3.org/2000/svg"
                 contentStyleType="text/css" id="svg2replaced1" version="1.1"
                 xml:space="preserve" width="16"
                 xmlns:dc="http://purl.org/dc/elements/1.1/"
                 xmlns:cc="http://creativecommons.org/ns#"
                 preserveAspectRatio="xMidYMid meet" viewBox="0 0 16 15.999999"
                 height="16" xmlns="http://www.w3.org/2000/svg" x="15" y="102">
                <metadata id="metadata8replaced1">
                    <rdf:RDF>
                        <cc:Work rdf:about="">
                            <dc:format>image/svg+xml</dc:format><dc:type rdf:resource="http://purl.org/dc/dcmitype/StillImage"/>
                            <dc:title/></cc:Work></rdf:RDF></metadata>
                <defs id="defs6replaced1"/>
                <g id="g10replaced1"
                   transform="matrix(1.25,0,0,-1.25,8.5106511e-4,17.251461)">
                    <g id="g12replaced1"
                       transform="matrix(0.04845402,0,0,0.04845402,3.1425684,0.51606285)">
                        <path id="path14replaced1"
                              d="m 15.3906,10.0117 c -0.6992,0 -1.4101,0.1485 -2.0312,0.5391 -1.6406,0.9805 -2.3789,3.0078 -1.7188,4.8086 L 53.3984,130.238 2.89063,144.648 c -1.28907,0.364 -2.300786,1.372 -2.730474,2.661 -0.390625,1.293 -0.082031,2.73 0.78125,3.75 L 103.398,272.781 c 1.211,1.438 3.282,1.797 4.922,0.938 1.68,-0.899 2.5,-2.821 1.95,-4.649 L 80.7383,166.609 131.52,152.148 c 1.332,-0.386 2.351,-1.398 2.742,-2.687 0.386,-1.332 0.117,-2.742 -0.782,-3.789 L 18.4414,11.4102 C 17.6602,10.4688 16.5195,10.0117 15.3906,10.0117 Z M 11.0508,150.629 59.7305,136.762 c 1.0898,-0.313 1.9492,-1.012 2.4609,-2.032 0.5078,-0.968 0.5781,-2.152 0.1875,-3.16 L 26.6797,33.3281 123.32,146.18 74.6914,160.039 c -1.0195,0.281 -1.8828,0.981 -2.3906,1.922 -0.5391,0.898 -0.6602,1.988 -0.3516,3.051 L 97.3789,253.211 11.0508,150.629 Z"
                              style="fill:#000000;fill-opacity:1;fill-rule:nonzero;stroke:none"/></g></g></svg>
            <text x="34" y="115" clip-path="url(#clipPath15)" stroke="none"
                  font-weight="normal" xml:space="preserve">rsRgbFrame: SuperimposedFrame</text>
            <line clip-path="url(#clipPath16)" fill="none" x1="11" x2="258"
                  y1="84" y2="84"/>
        </g>
    </g>
</svg>